# xmcd
#
# Track frame offsets: 
#        150
#        14018
#        30962
#        46591
#        61099
#        75438
#        94690
#        119836
#        134766
#
# Disc length: 2134 seconds
#
# Revision: 6
# Processed by: cddbd v1.5.2PL0 Copyright (c) Steve Scherf et al.
# Submitted via: ExactAudioCopyFreeDBPlugin 1.0
#
DISCID=6c085409
DTITLE=Al Green - Call Me
DYEAR=1973
DGENRE=Soul
TTITLE0=Call Me (Come Back Home)
TTITLE1=Have You Been Making Out OK
TTITLE2=Stand Up
TTITLE3=I'm So Lonesome I Could Cry
TTITLE4=Your Love is Like the Morning Sun
TTITLE5=Here I Am (Come and Take Me)
TTITLE6=Funny How Time Slips Away
TTITLE7=You Ought to Be with Me
TTITLE8=Jesus is Waiting
EXTD=Call Me (Fat Possum Remaster]\nAl Green Explores Your Mind\n© 199
EXTD=4 The Right Stuff\n© 2009 Hi Recording Corp./Fat Possum Records, 
EXTD=LLC\n\nOriginally Released April 1973\n2-on-1 CD Edition (with "L
EXTD=ivin' For You") Released September 10, 1991 (Motown]\nCD Edition 
EXTD=Released September 6, 1994 (The Right Stuff]\nRemastered CD Editi
EXTD=on Released June 29, 2004 (The Right Stuff]\nCD Edition Released 
EXTD=August 4, 2009 (Fat Possum]\n\n\nAMG EXPERT REVIEW:  Al Green rea
EXTD=ched his creative peak with the brilliant Call Me, the most inven
EXTD=tive and assured album of his career. So silky and fluid as to so
EXTD=und almost effortless, Green's vocals revel in the lush strings a
EXTD=nd evocative horns of Willie Mitchell's superbly intimate product
EXTD=ion, barely rising above an angelic whisper for the gossamer "Hav
EXTD=e You Been Making Out O.K.." With barely perceptible changes in m
EXTD=ood, Call Me covers remarkable ground, spanning from "Stand Up" -
EXTD=a call to arms delivered with characteristic understatement -- 
EXTD=to renditions of Hank Williams' "I'm So Lonesome I Could Cry" and
EXTD=Willie Nelson's "Funny How Time Slips Away," both of them exempl
EXTD=ary fusions of country and soul. Equally compelling are the album
EXTD='s three Top Ten hits -- "You Ought to Be With Me," "Here I Am (C
EXTD=ome and Take Me)," and the shimmering title cut. A classic.  -- J
EXTD=ason Ankeny\n\n\nAmazon.com essential recording\nCall Me is the m
EXTD=asterpiece from America's last great soul singer, a vulnerable, s
EXTD=ensual, spiritual, and sexy album. Sent soaring by the bluesy acc
EXTD=ents of the Memphis Horns and held to Earth by the rock-solid, wi
EXTD=de-open groove of drummer Al Jackson, the subject here is nothing
EXTD=less than Green's soul, a battle expressed beautifully in his ot
EXTD=herworldly voice--crying and praying on the title track, despairi
EXTD=ng on his cover of "I'm So Lonesome I Could Cry," both bitter and
EXTD=resigned on his version of "Funny How Time Slips Away"--a voice 
EXTD=as true as anything short of heaven. And on the closing "Jesus Is
EXTD=Waiting," we even get to hear that. --David Cantwell\n\n
EXTT0=
EXTT1=
EXTT2=
EXTT3=
EXTT4=
EXTT5=
EXTT6=
EXTT7=
EXTT8=
PLAYORDER=
